<?xml version="1.0" encoding="utf-8"?>
<!-- Generator: Adobe Illustrator 20.1.0, SVG Export Plug-In . SVG Version: 6.00 Build 0)  -->
<svg version="1.1" id="Layer_1" xmlns="http://www.w3.org/2000/svg" xmlns:xlink="http://www.w3.org/1999/xlink" x="0px" y="0px"
	 viewBox="0 0 226.822 146.894" style="enable-background:new 0 0 226.822 146.894;" xml:space="preserve">
<style type="text/css">
	.st0{fill:#FFFFFF;}
	.st1{fill:#F7323F;}
</style>
<g>
	<polygon class="st0" points="4.349,90.82 6.084,90.82 6.084,144.45 33.766,144.45 33.766,146.028 4.349,146.028 	"/>
	<path class="st0" d="M73,118.66v-0.394c0-16.089,9.78-28.313,23.503-28.313c6.783,0,10.963,2.05,15.3,5.679l-1.025,1.341
		c-3.944-3.234-8.045-5.442-14.354-5.442c-12.54,0-21.689,11.83-21.689,26.736v0.316c0,16.01,8.991,26.736,22.004,26.736
		c6.152,0,11.515-2.76,14.827-5.6v-19.559h-16.72v-1.735h18.376v22.083c-4.18,3.628-9.859,6.388-16.562,6.388
		C82.543,146.895,73,135.775,73,118.66z"/>
	<polygon class="st0" points="134.066,90.82 135.801,90.82 135.801,117.399 168.846,117.399 168.846,90.82 170.581,90.82 
		170.581,146.028 168.846,146.028 168.846,118.976 135.801,118.976 135.801,146.028 134.066,146.028 	"/>
	<polygon class="st0" points="204.255,92.398 187.693,92.398 187.693,90.82 222.473,90.82 222.473,92.398 205.99,92.398 
		205.99,146.028 204.255,146.028 	"/>
	<path class="st0" d="M49.042,45.177h9.586l15.276,36.14H63.242l-2.614-6.408H46.786l-2.563,6.408H33.766L49.042,45.177z
		 M57.756,67.169l-3.999-10.201l-4.05,10.201H57.756z M4.349,45.405h9.973v27.246h17.427v8.739h-27.4V45.405z M76.772,45.405h13.88
		c12.852,0,20.306,7.403,20.306,17.787v0.103c0,10.384-7.557,18.095-20.512,18.095H76.772V45.405z M90.807,72.548
		c5.963,0,9.922-3.29,9.922-9.099v-0.103c0-5.757-3.958-9.099-9.922-9.099h-4.061v18.301H90.807z M115.704,45.405h13.88
		c12.852,0,20.306,7.403,20.306,17.787v0.103c0,10.384-7.557,18.095-20.512,18.095h-13.675V45.405z M129.738,72.548
		c5.963,0,9.922-3.29,9.922-9.099v-0.103c0-5.757-3.958-9.099-9.922-9.099h-4.061v18.301H129.738z M154.636,45.405h28.943v8.482
		h-19.073v5.45h17.273v7.865h-17.273v5.706h19.329v8.482h-29.2V45.405z M189.366,45.405h17.016c5.501,0,9.304,1.439,11.721,3.907
		c2.108,2.056,3.188,4.832,3.188,8.38v0.103c0,5.501-2.93,9.15-7.403,11.052l8.585,12.544h-11.516l-7.248-10.898h-4.37v10.898
		h-9.973V45.405z M205.92,62.678c3.393,0,5.347-1.645,5.347-4.267v-0.103c0-2.827-2.056-4.267-5.398-4.267h-6.529v8.636H205.92z"/>
	<rect x="51.194" y="90.82" class="st0" width="1.735" height="55.208"/>
	<path class="st0" d="M37.492,16.479c0,3.316-2.688,6.004-6.004,6.004c-3.316,0-6.004-2.688-6.004-6.004
		c0-3.316,2.688-6.004,6.004-6.004C34.804,10.475,37.492,13.163,37.492,16.479z M226.823-0.001v35.839H62.978H-0.002v-4.35
		c0-17.069,13.655-31,30.613-31.467l0.019-0.022h0.857H226.823z M58.628,31.488c0-14.989-12.151-27.14-27.14-27.14
		c-1.698,0-3.358,0.164-4.97,0.462C14.147,7.101,4.726,17.778,4.368,30.726c-0.007,0.254-0.019,0.506-0.019,0.762H58.628z"/>
	<path class="st1" d="M62.99,31.488L62.99,31.488c0-1.626-0.135-3.22-0.375-4.779c-0.001-0.004-0.001-0.009-0.002-0.013
		c-0.072-0.469-0.157-0.933-0.25-1.395c-0.015-0.076-0.029-0.153-0.045-0.228c-0.035-0.168-0.062-0.338-0.099-0.505l18.659,6.921
		H62.99z M95.153,31.488l-33.76-9.893c-0.047-0.142-0.11-0.277-0.159-0.419c-0.213-0.612-0.439-1.218-0.687-1.812
		c-0.093-0.223-0.194-0.44-0.292-0.661c-0.231-0.519-0.477-1.03-0.735-1.533c-0.072-0.139-0.13-0.286-0.203-0.424l69.675,14.742
		H95.153z M155.278,31.488L57.676,14.005c-0.986-1.472-2.1-2.849-3.314-4.132c-0.011-0.012-0.022-0.023-0.034-0.035
		c-0.212-0.224-0.421-0.451-0.64-0.668l165.45,22.318H155.278z M222.473,25.805L50.439,6.352c-0.031-0.023-0.064-0.044-0.095-0.068
		c-0.316-0.237-0.64-0.462-0.964-0.688c-0.386-0.268-0.779-0.525-1.177-0.776c-0.158-0.1-0.314-0.203-0.475-0.299
		c-0.092-0.056-0.18-0.118-0.273-0.172h175.018V25.805z"/>
</g>
</svg>
