<?xml version="1.0" encoding="utf-8"?>
<!-- Generator: Adobe Illustrator 20.1.0, SVG Export Plug-In . SVG Version: 6.00 Build 0)  -->
<svg version="1.1" id="Layer_1" xmlns="http://www.w3.org/2000/svg" xmlns:xlink="http://www.w3.org/1999/xlink" x="0px" y="0px"
	 viewBox="0 0 600 380" style="enable-background:new 0 0 600 380;" xml:space="preserve">
<style type="text/css">
	.st0{fill:#F7323F;}
	.st1{fill:#3E3935;}
</style>
<g>
	<path class="st0" d="M590.826,74.7H415.164L146.689,26.58c-3.212-4.796-6.892-9.252-10.969-13.309L590.826,74.7z M600,0H118.575
		c2.845,1.682,5.58,3.529,8.206,5.515L600,59.059V0z M156.916,47.47l92.863,27.23h93.081L151.203,34.125
		C153.464,38.376,155.379,42.837,156.916,47.47z M161.307,74.7L161.307,74.7l49.204,0l-51.324-19.048
		C160.568,61.784,161.307,68.156,161.307,74.7z"/>
	<path class="st1" d="M122.939,100.028h26.369l42.02,99.472h-29.329l-7.191-17.637h-38.072l-7.05,17.637H80.919L122.939,100.028z
		 M146.91,160.559l-10.999-28.079l-11.14,28.079H146.91z M0,100.655h27.433v74.994H75.37v24.054H0V100.655z M199.218,100.655h38.18
		c35.352,0,55.857,20.376,55.857,48.958v0.284c0,28.581-20.787,49.806-56.422,49.806h-37.614V100.655z M237.822,175.365
		c16.404,0,27.292-9.056,27.292-25.044v-0.284c0-15.847-10.888-25.044-27.292-25.044h-11.171v50.372H237.822z M306.308,100.655
		h38.181c35.353,0,55.857,20.376,55.857,48.958v0.284c0,28.581-20.788,49.806-56.422,49.806h-37.615V100.655z M344.912,175.365
		c16.404,0,27.292-9.056,27.292-25.044v-0.284c0-15.847-10.888-25.044-27.292-25.044h-11.171v50.372H344.912z M413.398,100.655
		h79.614v23.347h-52.464v15h47.514v21.649h-47.514v15.706h53.17v23.346h-80.32V100.655z M508.932,100.655h46.807
		c15.131,0,25.594,3.961,32.24,10.754c5.799,5.66,8.768,13.301,8.768,23.064v0.284c0,15.14-8.061,25.186-20.362,30.421L600,199.703
		h-31.676l-19.939-29.997h-12.02v29.997h-27.434V100.655z M554.466,148.198c9.334,0,14.707-4.527,14.707-11.743v-0.284
		c0-7.782-5.657-11.743-14.849-11.743h-17.958v23.77H554.466z M0,225.657h4.772V373.27h76.146v4.342H0V225.657z M128.859,225.657
		h4.774v151.955h-4.774V225.657z M188.842,302.285V301.2c0-44.284,26.901-77.931,64.649-77.931c18.657,0,30.155,5.643,42.087,15.63
		l-2.821,3.69c-10.848-8.9-22.129-14.978-39.484-14.978c-34.494,0-59.66,32.561-59.66,73.589v0.869
		c0,44.067,24.732,73.589,60.527,73.589c16.922,0,31.674-7.598,40.786-15.413V306.41h-45.991v-4.775h50.548v60.782
		C287.985,372.402,272.365,380,253.925,380C215.092,380,188.842,349.392,188.842,302.285z M356.815,225.657h4.772v73.155h90.899
		v-73.155h4.772v151.955h-4.772v-74.458h-90.899v74.458h-4.772V225.657z M549.886,229.999h-45.558v-4.342H600v4.342h-45.341v147.613
		h-4.772V229.999z M149.307,74.7H0C0,33.444,33.424,0,74.654,0S149.307,33.444,149.307,74.7z M74.654,16.864
		c-9.121,0-16.515,7.399-16.515,16.525s7.394,16.525,16.515,16.525s16.515-7.399,16.515-16.525S83.775,16.864,74.654,16.864z"/>
</g>
</svg>
